<?xml version="1.0" encoding="UTF-8"?> <svg xmlns="http://www.w3.org/2000/svg" id="Слой_1" data-name="Слой 1" viewBox="0 0 31.99 32"> <defs> <style>.cls-1{fill:#009ee3;}</style> </defs> <title>Календарь_</title> <path class="cls-1" d="M1.78,23.5a3.88,3.88,0,1,1,3.87,3.87A3.88,3.88,0,0,1,1.78,23.5M24.64,4.78a.63.63,0,1,1-1.25,0V1.88a.63.63,0,1,1,1.25,0Zm-14.25,0a.63.63,0,1,1-1.25,0V1.88a.63.63,0,1,1,1.25,0Zm18.48-2h-3V1.88a1.88,1.88,0,1,0-3.75,0v.87H11.64V1.88a1.88,1.88,0,1,0-3.75,0v.89l-.16,0H5.24A3.13,3.13,0,0,0,2.11,5.87V16.52a.63.63,0,0,0,1.25,0V9.19H25.89a.63.63,0,1,0,0-1.25H3.36V5.87A1.88,1.88,0,0,1,5.24,4H7.73l.16,0v.8a1.88,1.88,0,1,0,3.75,0V4h10.5v.78a1.88,1.88,0,1,0,3.75,0V4h3a1.88,1.88,0,0,1,1.88,1.87V29.62a1.13,1.13,0,1,1-2.26,0V28a.62.62,0,0,0-.62-.62H20.6a.63.63,0,0,0,0,1.25h6.65v1a2.39,2.39,0,0,0,.28,1.13H2.37a1.13,1.13,0,0,1-1.12-1.13v-1h14a.63.63,0,0,0,0-1.25H9A5.12,5.12,0,1,0,.53,23.5a5.09,5.09,0,0,0,1.79,3.88H.63A.63.63,0,0,0,0,28v1.62A2.38,2.38,0,0,0,2.37,32H29.62A2.38,2.38,0,0,0,32,29.62V5.87a3.12,3.12,0,0,0-3.12-3.12"></path> <path class="cls-1" d="M29.26,8.12a.59.59,0,0,0-.44-.18.61.61,0,0,0-.62.62.59.59,0,0,0,.18.44.63.63,0,0,0,.44.19.65.65,0,0,0,.63-.63.63.63,0,0,0-.19-.44"></path> <path class="cls-1" d="M18.66,27.56a.63.63,0,0,0-.44-.18.67.67,0,0,0-.44.18.62.62,0,0,0-.18.44.63.63,0,0,0,.18.45.67.67,0,0,0,.44.18.63.63,0,0,0,.44-.18.62.62,0,0,0,0-.89"></path> <path class="cls-1" d="M14.14,22.5a1.13,1.13,0,1,1,0-2.25,1.13,1.13,0,0,1,0,2.25m0-3.5a2.38,2.38,0,1,0,2.37,2.37A2.38,2.38,0,0,0,14.14,19"></path> <path class="cls-1" d="M20,22.5a1.13,1.13,0,1,1,1.13-1.13A1.13,1.13,0,0,1,20,22.5M20,19a2.38,2.38,0,1,0,2.38,2.37A2.37,2.37,0,0,0,20,19"></path> <path class="cls-1" d="M25.8,22.5a1.13,1.13,0,1,1,1.13-1.13A1.13,1.13,0,0,1,25.8,22.5m0-3.5a2.38,2.38,0,1,0,2.38,2.37A2.37,2.37,0,0,0,25.8,19"></path> <path class="cls-1" d="M8.31,16a1.13,1.13,0,1,1,0-2.25,1.13,1.13,0,0,1,0,2.25m0-3.5a2.38,2.38,0,1,0,2.37,2.37A2.38,2.38,0,0,0,8.31,12.5"></path> <path class="cls-1" d="M20,16a1.13,1.13,0,1,1,1.13-1.13A1.13,1.13,0,0,1,20,16m0-3.5a2.38,2.38,0,1,0,2.38,2.37A2.37,2.37,0,0,0,20,12.5"></path> <path class="cls-1" d="M25.8,16a1.13,1.13,0,1,1,1.13-1.13A1.13,1.13,0,0,1,25.8,16m0-3.5a2.38,2.38,0,1,0,2.38,2.37A2.37,2.37,0,0,0,25.8,12.5"></path> <path class="cls-1" d="M14.14,16a1.13,1.13,0,1,1,0-2.25,1.13,1.13,0,0,1,0,2.25m0-3.5a2.38,2.38,0,1,0,2.37,2.37,2.38,2.38,0,0,0-2.37-2.37"></path> <path class="cls-1" d="M7.88,22A.63.63,0,0,0,7,22L5,24l-.69-.7a.63.63,0,1,0-.89.89l1.14,1.13a.63.63,0,0,0,.44.19.6.6,0,0,0,.44-.19l2.48-2.47a.64.64,0,0,0,0-.89"></path> </svg> 