<?xml version="1.0" encoding="UTF-8"?> <svg xmlns="http://www.w3.org/2000/svg" id="Слой_1" data-name="Слой 1" viewBox="0 0 32.71 32.7"> <defs> <style>.cls-1{fill:#009ee3;}.cls-2{fill:none;stroke:#009ee3;stroke-miterlimit:10;stroke-width:0.25px;}</style> </defs> <title>Карта_</title> <path class="cls-1" d="M13.27,9a3.08,3.08,0,1,1,3.08,3.08A3.09,3.09,0,0,1,13.27,9m7.12,0a4,4,0,1,0-4,4,4,4,0,0,0,4-4"></path> <path class="cls-2" d="M13.27,9a3.08,3.08,0,1,1,3.08,3.08A3.09,3.09,0,0,1,13.27,9Zm7.12,0a4,4,0,1,0-4,4A4,4,0,0,0,20.39,9Z"></path> <path class="cls-1" d="M27.12,31.63,23.4,26.8l5.43-1.94,2.58,6.77ZM4.83,22.37H7l5.58,7.25L7,31.62H1.3Zm8.71,7.93h0l8.9-3.16,3.46,4.49H9.83ZM16,27.22a.47.47,0,0,0,.67.05l.06-.05a52.06,52.06,0,0,0,3.52-4.85h7.64l.61,1.6L13.56,29.28,8.24,22.37h4.23A52.06,52.06,0,0,0,16,27.22M8.45,9A7.91,7.91,0,1,1,24.26,9c0,6.79-6.3,15.16-7.91,17.16-1.6-2-7.94-10.37-7.9-17.16m24.1,22.94L28.66,21.72a.49.49,0,0,0-.45-.31H20.84L21,21.2c2.84-4.7,4.27-8.81,4.25-12.21A8.87,8.87,0,0,0,7.49,9c0,3.4,1.41,7.51,4.24,12.21l.14.21H4.5a.49.49,0,0,0-.45.31L.16,31.93a.48.48,0,0,0,.27.62.51.51,0,0,0,.17,0H32.1a.47.47,0,0,0,.48-.48.51.51,0,0,0,0-.17"></path> <path class="cls-2" d="M27.12,31.63,23.4,26.8l5.43-1.94,2.58,6.77ZM4.83,22.37H7l5.58,7.25L7,31.62H1.3Zm8.71,7.93h0l8.9-3.16,3.46,4.49H9.83ZM16,27.22a.47.47,0,0,0,.67.05l.06-.05a52.06,52.06,0,0,0,3.52-4.85h7.64l.61,1.6L13.56,29.28,8.24,22.37h4.23A52.06,52.06,0,0,0,16,27.22ZM8.45,9A7.91,7.91,0,1,1,24.26,9c0,6.79-6.3,15.16-7.91,17.16C14.75,24.15,8.41,15.78,8.45,9Zm24.1,22.94L28.66,21.72a.49.49,0,0,0-.45-.31H20.84L21,21.2c2.84-4.7,4.27-8.81,4.25-12.21A8.87,8.87,0,0,0,7.49,9c0,3.4,1.41,7.51,4.24,12.21l.14.21H4.5a.49.49,0,0,0-.45.31L.16,31.93a.48.48,0,0,0,.27.62.51.51,0,0,0,.17,0H32.1a.47.47,0,0,0,.48-.48A.51.51,0,0,0,32.55,31.93Z"></path> </svg> 