<?xml version="1.0" encoding="UTF-8"?> <svg xmlns="http://www.w3.org/2000/svg" id="Слой_1" data-name="Слой 1" viewBox="0 0 32.03 32.03"> <defs> <style>.cls-1{fill:#009ee3;}</style> </defs> <title>Грамота _</title> <path class="cls-1" d="M1.55,28.93h1v1h-1Zm0-2.07h1v1h-1Zm0-2.06h1v1h-1ZM29.45,6.2h1v1h-1Zm0-2.06h1v1h-1Zm0-2.08h1v1h-1ZM9.81,22.73h7.24v1H9.81Zm8.27,0h1v1h-1ZM9.81,20.67h9.3v1H9.81Zm0-2.07h1v1h-1Zm2.08,0h8.78v1H11.89Zm0-11.37H16v1H11.89ZM16,16.53h4.65v1H16ZM9.3,4.14h9.3v1H9.3Zm4.13,9.29h9.3v1h-9.3ZM7.23,23.82V14.41a2.57,2.57,0,0,0,2-2H26.92a2.57,2.57,0,0,0,2,2v4.7h1V14a.52.52,0,0,0-.52-.52,1.55,1.55,0,0,1-1.55-1.55c0-1-.68-.3-19.11-.52a.52.52,0,0,0-.52.52,1.56,1.56,0,0,1-1.55,1.55.52.52,0,0,0-.52.52V24.28a.52.52,0,0,0,.52.52,1.55,1.55,0,0,1,1.55,1.55.52.52,0,0,0,.52.52H20.66v-1H9.24a2.57,2.57,0,0,0-2-2m-3.09-13V15a2.52,2.52,0,0,0-1-.47V5.12a2.59,2.59,0,0,0,2-2h1.6v-1H4.65a.52.52,0,0,0-.51.52A1.56,1.56,0,0,1,2.58,4.14a.52.52,0,0,0-.52.51V15a.53.53,0,0,0,.52.52,1.55,1.55,0,0,1,1.56,1.55v1.55H1.55A.52.52,0,0,1,1,18.09V1.55A.52.52,0,0,1,1.55,1h24.8a.52.52,0,0,1,.52.52V9.3h-1V4.65a.52.52,0,0,0-.52-.52,1.56,1.56,0,0,1-1.55-1.55.52.52,0,0,0-.52-.52H7.75v1h15a2.58,2.58,0,0,0,2,2V9.29H5.69a1.57,1.57,0,0,0-1.55,1.56m1,16.53V10.85a.52.52,0,0,1,.52-.52H27.9V1.55A1.55,1.55,0,0,0,26.35,0H1.55A1.55,1.55,0,0,0,0,1.55V18.08a1.55,1.55,0,0,0,1.55,1.55H4.14v7.75a1.54,1.54,0,0,0,1.55,1.55h15v-1h-15a.52.52,0,0,1-.52-.52M30.48,9.3H28.93v1h1.55a.52.52,0,0,1,.52.52V27.38a.52.52,0,0,1-.52.52H28.93v1h1.55A1.54,1.54,0,0,0,32,27.38V10.85A1.55,1.55,0,0,0,30.48,9.3m-5.68,15a1.55,1.55,0,1,1,1.55-1.55,1.54,1.54,0,0,1-1.55,1.55m0-4.13a2.58,2.58,0,1,0,2.58,2.58,2.58,2.58,0,0,0-2.58-2.58m3.59,3.07a1.81,1.81,0,0,0-.4,1.23c.05,1-1,.53-1.62,1.55a.79.79,0,0,1-.93.3,1.79,1.79,0,0,0-1.29,0,.79.79,0,0,1-.93-.3c-.65-1-1.67-.59-1.62-1.55a1.81,1.81,0,0,0-.4-1.23.78.78,0,0,1,0-1A1.8,1.8,0,0,0,21.6,21a.77.77,0,0,1,.57-.79,1.81,1.81,0,0,0,1-.76.78.78,0,0,1,.93-.3,1.79,1.79,0,0,0,1.29,0,.79.79,0,0,1,.93.3,1.77,1.77,0,0,0,1.05.76A.78.78,0,0,1,28,21a1.8,1.8,0,0,0,.4,1.22.78.78,0,0,1,0,1m-1.53,7.46L25,29.77a.55.55,0,0,0-.47,0l-1.84.91V27a1.85,1.85,0,0,0,1.79.3.77.77,0,0,1,.56,0A1.79,1.79,0,0,0,26.86,27Zm2.33-6.81a1.82,1.82,0,0,0,0-2.27.78.78,0,0,1-.17-.53,1.83,1.83,0,0,0-1.34-1.84.8.8,0,0,1-.45-.32,1.81,1.81,0,0,0-2.16-.7.77.77,0,0,1-.56,0,1.82,1.82,0,0,0-2.16.7.77.77,0,0,1-.45.32,1.83,1.83,0,0,0-1.34,1.84.75.75,0,0,1-.17.53,1.82,1.82,0,0,0,0,2.27.78.78,0,0,1,.17.52,1.84,1.84,0,0,0,1.13,1.77v5.35a.51.51,0,0,0,.51.52.5.5,0,0,0,.24-.06l2.35-1.17L27.14,32a.51.51,0,0,0,.69-.23.46.46,0,0,0,.06-.23V26.16A1.84,1.84,0,0,0,29,24.39a.83.83,0,0,1,.17-.52"></path> </svg> 