<?xml version="1.0" encoding="UTF-8"?> <svg xmlns="http://www.w3.org/2000/svg" id="Слой_1" data-name="Слой 1" viewBox="0 0 32.03 32.03"> <defs> <style>.cls-1{fill:#009ee3;}</style> </defs> <title>Производство_</title> <path class="cls-1" d="M15.52,13.63a.63.63,0,0,0-.18.45.65.65,0,0,0,.18.44.63.63,0,0,0,.45.18.67.67,0,0,0,.44-.18.6.6,0,0,0,.18-.44.67.67,0,0,0-.18-.45.62.62,0,0,0-.44-.18.65.65,0,0,0-.45.18m4.22,1.07a.63.63,0,0,0,0-1.25H18a.63.63,0,1,0,0,1.25ZM30,12.94a.63.63,0,0,0-.57-.36h-6a.64.64,0,0,0-.57.36L22.21,12,25.8,8.41a1.58,1.58,0,0,0,.58.11A1.52,1.52,0,0,0,27,8.41L30.6,12ZM24,18.59V13.83h4.75v4.76ZM26.69,3.75V7a.32.32,0,0,1-.63,0V3.75Zm-19,8H5.3V11L6.49,9.84,7.68,11ZM5.3,13H7.68v3.26H5.3Zm3.83,5.76H3.84L3.1,17.52H9.87ZM4.11,20H8.87v4.76H4.11Zm9.53,0h4.75v4.76H13.64ZM30.78,28.4A2.38,2.38,0,1,1,28.4,26a2.37,2.37,0,0,1,2.38,2.37m-29.53,0a2.38,2.38,0,1,1,2.38,2.38A2.37,2.37,0,0,1,1.25,28.4m17.14,0A2.38,2.38,0,1,1,16,26a2.37,2.37,0,0,1,2.37,2.37M25.66,26a3.61,3.61,0,0,0,0,4.75h-6.9a3.61,3.61,0,0,0,0-4.75ZM13,26h.27a3.61,3.61,0,0,0,0,4.75H6.37a3.61,3.61,0,0,0,0-4.75ZM28,3.75h3.46A.62.62,0,0,0,32,3.13V.63A.63.63,0,0,0,31.41,0H.63A.63.63,0,0,0,0,.63v2.5a.63.63,0,0,0,.63.62H5.86V8.7L4.23,10.33a.62.62,0,0,0-.18.44v1.47a.69.69,0,0,0,.08.32,1.22,1.22,0,0,0-.08.43v3.28H2a.62.62,0,0,0-.54.32.64.64,0,0,0,0,.63l1.4,2.35v5.29A3.63,3.63,0,0,0,3.63,32H28.4a3.63,3.63,0,1,0,0-7.25H19.65V19.4a.63.63,0,0,0-.63-.63H13a.63.63,0,0,0-.62.63v5.38H10.12V19.56l1.39-2.35a.64.64,0,0,0,0-.63.66.66,0,0,0-.55-.32h-2V13a1.32,1.32,0,0,0-.08-.44.65.65,0,0,0,.08-.31V10.76a.65.65,0,0,0-.18-.44L7.11,8.7V3.75h2.94a.63.63,0,1,0,0-1.25H7.11V2.32a.63.63,0,1,0-1.25,0V2.5H1.25V1.25H30.78V2.5H28V2.37a.63.63,0,1,0-1.26,0V2.5h-.63V2.37a.63.63,0,1,0-1.25,0V2.5H16a.63.63,0,1,0,0,1.25h8.85V7a1.38,1.38,0,0,0,.11.57l-4,3.94a.62.62,0,0,0-.08.78l1.89,2.91V16H18.37a.63.63,0,0,0,0,1.25h4.41v1.94a.63.63,0,0,0,.63.63h6a.63.63,0,0,0,.62-.63V15.15l1.89-2.91a.61.61,0,0,0-.09-.78l-4-3.94A1.52,1.52,0,0,0,27.94,7Zm-15-1.07a.63.63,0,0,0-.18.45.67.67,0,0,0,.18.44.63.63,0,0,0,.45.18.67.67,0,0,0,.44-.18A.6.6,0,0,0,14,3.13a.67.67,0,0,0-.18-.45.65.65,0,0,0-.44-.18.69.69,0,0,0-.45.18M4.07,28.85a.63.63,0,0,0,.18-.45A.62.62,0,0,0,4.07,28a.6.6,0,0,0-.44-.18.69.69,0,0,0-.45.18A.65.65,0,0,0,3,28.4a.67.67,0,0,0,.18.45.63.63,0,0,0,.45.18.65.65,0,0,0,.44-.18M28,28a.62.62,0,0,0-.18.44.67.67,0,0,0,.18.45.59.59,0,0,0,.44.18.67.67,0,0,0,.45-.18A.61.61,0,0,0,29,28.4a.67.67,0,0,0-.18-.44.61.61,0,0,0-.45-.18A.65.65,0,0,0,28,28M16,29a.67.67,0,0,0,.44-.18.61.61,0,0,0,.18-.45.67.67,0,0,0-.18-.44.6.6,0,0,0-.44-.18.67.67,0,0,0-.45.18.6.6,0,0,0-.18.44A.62.62,0,0,0,16,29"></path> </svg> 