<?xml version="1.0" encoding="UTF-8"?> <svg xmlns="http://www.w3.org/2000/svg" id="Слой_1" data-name="Слой 1" viewBox="0 0 31.99 31.99"> <defs> <style>.cls-1{fill:#009ee3;}</style> </defs> <title>Сколково_</title> <path class="cls-1" d="M15.52.94h.95V2.53h-.95ZM1.48,9A.48.48,0,0,0,2,8.55V3.47h28.1V13.56a.47.47,0,0,0,.94,0V3a.47.47,0,0,0-.47-.47H17.42V.47A.48.48,0,0,0,17,0h-1.9a.47.47,0,0,0-.46.47V2.53H1.48A.48.48,0,0,0,1,3V8.55A.48.48,0,0,0,1.48,9"></path> <path class="cls-1" d="M23.52,31.05H22.6l-1.69-5.82h.92Zm-7,0h-1V25.23h1Zm-7.08,0H8.48l1.69-5.82h.92Zm22.13-8.66H31V15.75a.47.47,0,1,0-.93,0v6.64H2V10.74a.47.47,0,0,0-.47-.47.48.48,0,0,0-.47.47V22.39H.47a.47.47,0,0,0-.47.47v1.9a.48.48,0,0,0,.47.47H3.41a.47.47,0,0,0,.46-.47.47.47,0,0,0-.46-.47H.94v-1H31.06v1H5.6a.47.47,0,0,0-.47.47.48.48,0,0,0,.47.47H9.19L7.41,31.39a.45.45,0,0,0,.07.42.46.46,0,0,0,.38.18H9.75a.46.46,0,0,0,.45-.33l1.85-6.43h2.53v6.29a.47.47,0,0,0,.47.47h1.89a.47.47,0,0,0,.47-.47V25.23h2.52l1.86,6.43a.46.46,0,0,0,.45.33h1.89a.47.47,0,0,0,.47-.47.45.45,0,0,0,0-.16L22.8,25.23h8.71a.48.48,0,0,0,.47-.47v-1.9a.45.45,0,0,0-.45-.47"></path> <path class="cls-1" d="M26.12,19.82s0,0,0,0l-.05-.12-.47-.8c-1-1.71-2-3.48-3.07-5.21l2-2.22.56-.62.59-.65L26,9.87A.45.45,0,0,0,26,9.5a.43.43,0,0,0-.25-.29h0a.46.46,0,0,0-.21,0h-3.1a.75.75,0,0,0-.52.26c-.66.75-1.33,1.52-2,2.27l-.68.77V5.92a.4.4,0,0,0-.4-.4H16.16a.4.4,0,0,0-.41.4v.29a4.79,4.79,0,0,0-1.27-.66A8.3,8.3,0,0,0,9.4,5.47a4.52,4.52,0,0,0-3.21,5.59,3.68,3.68,0,0,0,2.66,2.8c.6.2,1.22.35,1.82.49l1.17.29.42.12a13.16,13.16,0,0,1,1.78.56.91.91,0,0,1,.56.69,1,1,0,0,1-.32.92,2,2,0,0,1-.71.41,4.84,4.84,0,0,1-2.46.12,1.82,1.82,0,0,1-1.65-1.65.56.56,0,0,0-.64-.55H6.43l-.18,0h0a.41.41,0,0,0-.34.31s0,0,0,0,0,.09,0,.16a4.68,4.68,0,0,0,2.94,4.4,8.41,8.41,0,0,0,3.3.61l.6,0A7.18,7.18,0,0,0,15.77,20a.47.47,0,0,0,.13.25.64.64,0,0,0,.5.18h.18a.41.41,0,0,0,0-.82v-.31a.41.41,0,0,0-.58-.37L16,19a.42.42,0,0,0-.14.06,6,6,0,0,1-3.16.95,8.08,8.08,0,0,1-3.54-.53,3.88,3.88,0,0,1-2.42-3.35h2A2.6,2.6,0,0,0,11,18.27a5.76,5.76,0,0,0,2.87-.15,2.75,2.75,0,0,0,1-.59,1.86,1.86,0,0,0,.57-1.65,1.76,1.76,0,0,0-1.05-1.3,14.64,14.64,0,0,0-1.88-.6l-.42-.11c-.39-.11-.8-.21-1.18-.3-.59-.15-1.2-.3-1.77-.48A2.85,2.85,0,0,1,7,10.89,3.72,3.72,0,0,1,9.65,6.25a7.59,7.59,0,0,1,4.6.08,4,4,0,0,1,1.54,1l.11.09s0,0,0,0a.4.4,0,0,0,.42,0,.41.41,0,0,0,.23-.36V6.34h1.9v7.11a.43.43,0,0,0,.27.39l.05,0a.4.4,0,0,0,.45-.12l.2-.22.42-.48.71-.82,2-2.25H24.8l-.27.3-.56.61c-.68.75-1.38,1.53-2.08,2.29a.63.63,0,0,0-.08.82c1,1.76,2.09,3.55,3.1,5.28l.19.32H22.78c-.57-1.05-1.16-2.11-1.73-3.15l-.45-.82c-.05-.09-.12-.2-.14-.25a.38.38,0,0,0-.29-.18.34.34,0,0,0-.32.1l-.28.25c-.29.26-.59.53-.89.82a.69.69,0,0,0-.16.52v.3c0,.75,0,1.52,0,2.29v.1a.41.41,0,0,0-.41.41.41.41,0,0,0,.41.41h.12a.69.69,0,0,0,.51-.17.66.66,0,0,0,.18-.53c0-.84,0-1.69,0-2.51v-.3h0l.69-.64.33.6c.57,1,1.17,2.1,1.74,3.15a.73.73,0,0,0,.69.41h3a.42.42,0,0,0,.32-.19.69.69,0,0,0,0-.37"></path> <path class="cls-1" d="M15.72,12.07a12.76,12.76,0,0,0-2.27-.67l-.68-.17-1-.26-1.15-.28a1.22,1.22,0,0,1-.88-.55A1.06,1.06,0,0,1,10,8.81a2.12,2.12,0,0,1,1.06-.4,6.07,6.07,0,0,1,.71-.05,3.23,3.23,0,0,1,1.29.24,1.58,1.58,0,0,1,1,1.3h0l0,.16.05.12s0,0,0,0a.4.4,0,0,0,.38.26h1.17v1.58Zm.41-2.39H14.86a2.39,2.39,0,0,0-1.49-1.84A4.73,4.73,0,0,0,11,7.6a2.89,2.89,0,0,0-1.46.56A1.88,1.88,0,0,0,9,10.52a2,2,0,0,0,1.4,1l1.17.28,1,.25.7.17a12.79,12.79,0,0,1,2.2.67,2.3,2.3,0,0,1,.32.15l.16.07a.39.39,0,0,0,.18,0,.46.46,0,0,0,.22-.06.41.41,0,0,0,.18-.35V10.08a.4.4,0,0,0-.4-.4"></path> <rect class="cls-1" x="30.96" y="30.96" width="1.03" height="1.03"></rect> <rect class="cls-1" y="30.96" width="1.03" height="1.03"></rect> <rect class="cls-1" x="2.06" y="30.96" width="1.03" height="1.03"></rect> </svg> 