<?xml version="1.0" encoding="utf-8"?>
<!-- Generator: Adobe Illustrator 16.0.0, SVG Export Plug-In . SVG Version: 6.00 Build 0)  -->
<!DOCTYPE svg PUBLIC "-//W3C//DTD SVG 1.1//EN" "http://www.w3.org/Graphics/SVG/1.1/DTD/svg11.dtd">
<svg version="1.1" id="Слой_1" xmlns="http://www.w3.org/2000/svg" xmlns:xlink="http://www.w3.org/1999/xlink" x="0px" y="0px"
	 width="50px" height="50px" viewBox="96 1.5 50 50" enable-background="new 96 1.5 50 50" xml:space="preserve">
<g>
	<polygon fill="#FCD11B" points="121,51.5 108.5,39 121,26.5 	"/>
	<polygon fill="#FF1153" points="146,26.5 133.5,39 121,26.5 	"/>
	<polygon fill="#5ABCE0" points="121,1.5 133.5,14 121,26.5 	"/>
	<polygon fill="#2A77B9" points="96,26.5 108.5,14 121,26.5 	"/>
	<path fill="#E01B5D" d="M146,26.5h-25l21.519-21.518C143.774,3.661,146,4.207,146,6.424V26.5z"/>
	<path fill="#47A1D1" d="M121,1.5v25L108.5,14l-9.018-9.018C98.161,3.726,98.707,1.5,100.924,1.5H121z"/>
	<path fill="#1152A4" d="M96,26.5h25L108.5,39l-9.018,9.018C98.225,49.339,96,48.793,96,46.576V26.5z"/>
	<path fill="#FFA000" d="M121,51.5v-25L133.5,39l9.019,9.018c1.32,1.258,0.774,3.482-1.442,3.482H121z"/>
</g>
</svg>
