<svg id="Слой_1" data-name="Слой 1" xmlns="http://www.w3.org/2000/svg" xmlns:xlink="http://www.w3.org/1999/xlink" viewBox="0 0 144.48 32.13"><defs><style>.cls-1{fill:#000032;}.cls-2{fill:url(#Безымянный_градиент_36);}.cls-3{fill:url(#Безымянный_градиент_30);}.cls-4{fill:url(#Безымянный_градиент_20);}.cls-5{fill:url(#Безымянный_градиент_25);}</style><linearGradient id="Безымянный_градиент_36" x1="1334.44" y1="446.95" x2="1320.11" y2="432.61" gradientTransform="translate(-1308.82 -413.29)" gradientUnits="userSpaceOnUse"><stop offset="0" stop-color="#ffc800"/><stop offset="0.28" stop-color="#ffc400"/><stop offset="0.57" stop-color="#ffb700"/><stop offset="0.86" stop-color="#ffa300"/><stop offset="1" stop-color="#ff9600"/></linearGradient><linearGradient id="Безымянный_градиент_30" x1="1305.77" y1="439.42" x2="1320.11" y2="425.09" gradientTransform="translate(-1308.82 -413.29)" gradientUnits="userSpaceOnUse"><stop offset="0" stop-color="#003cc8"/><stop offset="0.31" stop-color="#0038c8"/><stop offset="0.64" stop-color="#002bc8"/><stop offset="0.96" stop-color="#0017c8"/><stop offset="1" stop-color="#0014c8"/></linearGradient><linearGradient id="Безымянный_градиент_20" x1="1313.3" y1="410.75" x2="1327.63" y2="425.09" gradientTransform="translate(-1308.82 -413.29)" gradientUnits="userSpaceOnUse"><stop offset="0" stop-color="#00beff"/><stop offset="0.25" stop-color="#00baff"/><stop offset="0.52" stop-color="#00adff"/><stop offset="0.78" stop-color="#09f"/><stop offset="1" stop-color="#0082ff"/></linearGradient><linearGradient id="Безымянный_градиент_25" x1="1341.97" y1="418.28" x2="1327.63" y2="432.61" gradientTransform="translate(-1308.82 -413.29)" gradientUnits="userSpaceOnUse"><stop offset="0" stop-color="#ff0053"/><stop offset="0.23" stop-color="#fb0053"/><stop offset="0.46" stop-color="#ee0053"/><stop offset="0.7" stop-color="#da0053"/><stop offset="0.94" stop-color="#bd0053"/><stop offset="1" stop-color="#b40053"/></linearGradient></defs><title>logo innovacii detyam</title><path class="cls-1" d="M44.6,6.72l.12-1.82L43.43,6.7l-4.24,4.88H37.46V.82h2.87V5.88l-.1,1.48h.25l.5-.74.5-.74L45.74.82h1.73V11.58H44.6Z" transform="translate(0 -0.51)"/><path class="cls-1" d="M56.81,7.42H52.73v4.16H49.86V.82h2.87v4h4.08v-4h2.87V11.58H56.81Z" transform="translate(0 -0.51)"/><path class="cls-1" d="M69,7.42H64.89v4.16H62V.82h2.87v4H69v-4h2.86V11.58H69Z" transform="translate(0 -0.51)"/><path class="cls-1" d="M73.41,6.21A5.9,5.9,0,0,1,74.83,2a5.26,5.26,0,0,1,4-1.52,6.07,6.07,0,0,1,2.39.43A4.72,4.72,0,0,1,83,2.14a5.12,5.12,0,0,1,1,1.8,7.16,7.16,0,0,1,.34,2.27A7.1,7.1,0,0,1,84,8.58a4.94,4.94,0,0,1-1.07,1.79,4.53,4.53,0,0,1-1.71,1.13,7,7,0,0,1-4.72,0,4.59,4.59,0,0,1-1.7-1.2,5.1,5.1,0,0,1-1-1.81A7.31,7.31,0,0,1,73.41,6.21Zm3,0a5.21,5.21,0,0,0,.14,1.27,2.92,2.92,0,0,0,.44,1,2.19,2.19,0,0,0,.77.71,2.28,2.28,0,0,0,1.15.27c1.66,0,2.5-1.09,2.5-3.28a6,6,0,0,0-.14-1.32,3,3,0,0,0-.43-1A2.09,2.09,0,0,0,80,3.15a2.54,2.54,0,0,0-1.15-.24A2.3,2.3,0,0,0,77,3.69,3.88,3.88,0,0,0,76.37,6.21Z" transform="translate(0 -0.51)"/><path class="cls-1" d="M86,.82,88,.7c.75,0,1.58-.07,2.48-.07a7.08,7.08,0,0,1,3.61.68,2.22,2.22,0,0,1,1.06,2,2.5,2.5,0,0,1-.47,1.45,2.75,2.75,0,0,1-1.47,1.05V6a3.33,3.33,0,0,1,1.85.92,2.38,2.38,0,0,1,.59,1.67A2.59,2.59,0,0,1,94.29,11a8.69,8.69,0,0,1-4.3.8c-.64,0-1.32,0-2,0s-1.36-.08-1.92-.13ZM90.58,5.2a2.56,2.56,0,0,0,1.34-.31,1,1,0,0,0,.51-.83A1,1,0,0,0,92,3.2a2.93,2.93,0,0,0-1.59-.31l-.68,0-.49,0h-.39V5.2ZM88.84,9.39c.27,0,.51.08.71.1l.71,0a3.84,3.84,0,0,0,1.93-.34,1.08,1.08,0,0,0,.55-1,1.12,1.12,0,0,0-.48-.94,3,3,0,0,0-1.72-.35h-1.7Z" transform="translate(0 -0.51)"/><path class="cls-1" d="M97.8,1.56a10.5,10.5,0,0,1,2.26-.68,14.09,14.09,0,0,1,2.78-.27,5.73,5.73,0,0,1,1.89.27,2.79,2.79,0,0,1,1.22.77,3,3,0,0,1,.65,1.21,5.87,5.87,0,0,1,.19,1.57c0,.69,0,1.38-.08,2.07s-.08,1.4-.08,2.17a10.88,10.88,0,0,0,.1,1.52,8,8,0,0,0,.33,1.41h-2.34l-.47-1.6H104a4.89,4.89,0,0,1-1.36,1.23,3.92,3.92,0,0,1-2.11.51,4.27,4.27,0,0,1-1.42-.22A3.22,3.22,0,0,1,98,10.87a2.94,2.94,0,0,1-.72-1A3,3,0,0,1,97,8.63a3.24,3.24,0,0,1,1.22-2.76,6.05,6.05,0,0,1,3.7-.93A7.3,7.3,0,0,1,103.1,5l.8.13a5.54,5.54,0,0,0,.07-.73,1.51,1.51,0,0,0-.39-1.15,2.14,2.14,0,0,0-1.46-.37,8.2,8.2,0,0,0-1.92.23,9.06,9.06,0,0,0-1.65.59Zm3.75,7.89A2.4,2.4,0,0,0,103.08,9a2.92,2.92,0,0,0,.84-.95V6.82l-.31-.08-.47-.08-.52-.06a3.78,3.78,0,0,0-.46,0,2.71,2.71,0,0,0-1.64.4A1.2,1.2,0,0,0,100,8a1.41,1.41,0,0,0,.42,1.11A1.7,1.7,0,0,0,101.55,9.45Z" transform="translate(0 -0.51)"/><path class="cls-1" d="M120.52,14h-2l-.35-2.44h-9V.82h2.86V9h3.88V.82h2.87V9h1.72Z" transform="translate(0 -0.51)"/><path class="cls-1" d="M129.06,6.72l.12-1.82-1.29,1.8-4.24,4.88h-1.73V.82h2.87V5.88l-.1,1.48h.25l.5-.74.5-.74L130.2.82h1.73V11.58h-2.87Z" transform="translate(0 -0.51)"/><path class="cls-1" d="M141.61,6.72l.12-1.82-1.29,1.8-4.24,4.88h-1.72V.82h2.87V5.88l-.11,1.48h.25c.17-.24.33-.48.5-.74s.34-.51.51-.74L142.76.82h1.72V11.58h-2.87Z" transform="translate(0 -0.51)"/><path class="cls-1" d="M49,32.64H47l-.37-2.44H38.51l-.39,2.44h-2v-5h1.35a8.74,8.74,0,0,0,.51-.82,8.91,8.91,0,0,0,.61-1.56,17,17,0,0,0,.51-2.43,23.62,23.62,0,0,0,.24-3.41h8v8.22H49ZM44.45,27.8v-6H41.77c0,.54-.08,1.09-.17,1.67s-.18,1.12-.3,1.66-.27,1-.43,1.49a5.93,5.93,0,0,1-.54,1.15Z" transform="translate(0 -0.51)"/><path class="cls-1" d="M59.67,29.21a6.23,6.23,0,0,1-1.9.92,8.54,8.54,0,0,1-2.57.37A5.05,5.05,0,0,1,51.14,29a6.22,6.22,0,0,1-1.29-4.16,5.77,5.77,0,0,1,1.46-4.26,5.57,5.57,0,0,1,4.1-1.44,7,7,0,0,1,1.7.21,4.21,4.21,0,0,1,1.49.72,3.69,3.69,0,0,1,1.06,1.35,4.9,4.9,0,0,1,.4,2.11c0,.28,0,.6-.05.94a8.39,8.39,0,0,1-.18,1.06H52.66a3,3,0,0,0,.81,2.06,3.27,3.27,0,0,0,2.31.67A4.94,4.94,0,0,0,57.51,28a5.23,5.23,0,0,0,1.18-.56Zm-4.3-7.83a2.4,2.4,0,0,0-1.89.69,3,3,0,0,0-.72,1.75h4.63A2.54,2.54,0,0,0,57,22,1.86,1.86,0,0,0,55.37,21.38Z" transform="translate(0 -0.51)"/><path class="cls-1" d="M70.69,22H67.35V30.2h-3V22H61V19.44h9.67Z" transform="translate(0 -0.51)"/><path class="cls-1" d="M78.49,26.53l-1.62.27-2.23,3.4H71.13l2.32-3.3,1.21-.49A3.31,3.31,0,0,1,73.33,26a2.68,2.68,0,0,1-.86-.81A3.12,3.12,0,0,1,72,24.12a6,6,0,0,1-.13-1.2,3.19,3.19,0,0,1,1.41-2.87,8.06,8.06,0,0,1,4.33-.92,19.17,19.17,0,0,1,2,.1c.66.07,1.23.15,1.72.23V30.2H78.49Zm0-1.8v-3a3.18,3.18,0,0,0-.61-.16,4.08,4.08,0,0,0-.68-.06,3.09,3.09,0,0,0-1.74.4,1.39,1.39,0,0,0-.6,1.26,1.29,1.29,0,0,0,.67,1.21,4.31,4.31,0,0,0,2,.37Z" transform="translate(0 -0.51)"/><path class="cls-1" d="M93.69,25.42l.2-2.33h-.33l-1,1.84v0l-2.17,3.34h-1L87,24.91v0l-1-1.84h-.29l.31,2.31v4.8H83.54V19.44h3l2.69,4L90,24.6h.22l.72-1.19,2.5-4h3V30.2H93.69Z" transform="translate(0 -0.51)"/><path class="cls-2" d="M22.58,23.09l-7.53-7.53L7.53,23.09l7.31,7.32a.75.75,0,0,0,.51.21h13a.72.72,0,0,0,.51-1.23Z" transform="translate(0 -0.51)"/><path class="cls-3" d="M7.53,23.09l7.52-7.53L7.53,8,.21,15.35a.75.75,0,0,0-.21.51v13a.72.72,0,0,0,1.23.51Z" transform="translate(0 -0.51)"/><path class="cls-4" d="M7.53,8l7.52,7.52L22.58,8,15.26.72a.71.71,0,0,0-.5-.21h-13a.72.72,0,0,0-.5,1.23Z" transform="translate(0 -0.51)"/><path class="cls-5" d="M22.58,8l-7.53,7.52,7.53,7.53,7.31-7.32a.68.68,0,0,0,.22-.5v-13a.72.72,0,0,0-1.23-.5Z" transform="translate(0 -0.51)"/></svg>